<svg width="189" height="79" viewBox="0 0 189 79" fill="none" xmlns="http://www.w3.org/2000/svg">
<rect width="189" height="79" fill="#333333"/>
<path d="M45.7455 31.108L53.1515 44.926H53.3615L53.2215 37.744V31.108H57.0155V49H51.6955L44.1075 34.888H43.8835L44.0375 42.378V49H40.2295V31.108H45.7455ZM70.2081 49L70.3481 45.416L70.2641 44.94V41.272L70.2501 40.67C70.2501 39.7647 69.9515 39.088 69.3541 38.64C68.7661 38.192 67.8141 37.968 66.4981 37.968C65.3688 37.968 64.3188 38.108 63.3481 38.388C62.3868 38.668 61.4908 38.9853 60.6601 39.34L61.0241 36.386C61.5001 36.1527 62.0415 35.9333 62.6481 35.728C63.2641 35.5227 63.9455 35.3547 64.6921 35.224C65.4481 35.084 66.2695 35.014 67.1561 35.014C68.4628 35.014 69.5548 35.1633 70.4321 35.462C71.3095 35.7513 72.0048 36.1667 72.5181 36.708C73.0408 37.24 73.4141 37.8653 73.6381 38.584C73.8621 39.3027 73.9741 40.0867 73.9741 40.936V49H70.2081ZM64.8041 49.364C63.2361 49.364 62.0321 49.0187 61.1921 48.328C60.3615 47.6373 59.9461 46.662 59.9461 45.402V45.136C59.9461 43.7267 60.4361 42.7 61.4161 42.056C62.3961 41.412 63.8895 40.992 65.8961 40.796L70.5721 40.32L70.7261 42.63L66.2881 43.106C65.3175 43.2087 64.6361 43.386 64.2441 43.638C63.8615 43.89 63.6701 44.2773 63.6701 44.8V44.912C63.6701 45.4067 63.8615 45.794 64.2441 46.074C64.6361 46.3447 65.2381 46.48 66.0501 46.48C66.8435 46.48 67.5295 46.368 68.1081 46.144C68.6961 45.9107 69.1721 45.6027 69.5361 45.22C69.9095 44.8373 70.1755 44.422 70.3341 43.974L70.8941 45.878H70.1801C70.0121 46.5127 69.7275 47.096 69.3261 47.628C68.9248 48.1507 68.3601 48.5707 67.6321 48.888C66.9041 49.2053 65.9615 49.364 64.8041 49.364ZM86.7511 49L86.8911 45.416L86.8071 44.94V41.272L86.7931 40.67C86.7931 39.7647 86.4944 39.088 85.8971 38.64C85.3091 38.192 84.3571 37.968 83.0411 37.968C81.9118 37.968 80.8618 38.108 79.8911 38.388C78.9298 38.668 78.0338 38.9853 77.2031 39.34L77.5671 36.386C78.0431 36.1527 78.5844 35.9333 79.1911 35.728C79.8071 35.5227 80.4884 35.3547 81.2351 35.224C81.9911 35.084 82.8124 35.014 83.6991 35.014C85.0058 35.014 86.0978 35.1633 86.9751 35.462C87.8524 35.7513 88.5478 36.1667 89.0611 36.708C89.5838 37.24 89.9571 37.8653 90.1811 38.584C90.4051 39.3027 90.5171 40.0867 90.5171 40.936V49H86.7511ZM81.3471 49.364C79.7791 49.364 78.5751 49.0187 77.7351 48.328C76.9044 47.6373 76.4891 46.662 76.4891 45.402V45.136C76.4891 43.7267 76.9791 42.7 77.9591 42.056C78.9391 41.412 80.4324 40.992 82.4391 40.796L87.1151 40.32L87.2691 42.63L82.8311 43.106C81.8604 43.2087 81.1791 43.386 80.7871 43.638C80.4044 43.89 80.2131 44.2773 80.2131 44.8V44.912C80.2131 45.4067 80.4044 45.794 80.7871 46.074C81.1791 46.3447 81.7811 46.48 82.5931 46.48C83.3864 46.48 84.0724 46.368 84.6511 46.144C85.2391 45.9107 85.7151 45.6027 86.0791 45.22C86.4524 44.8373 86.7184 44.422 86.8771 43.974L87.4371 45.878H86.7231C86.5551 46.5127 86.2704 47.096 85.8691 47.628C85.4678 48.1507 84.9031 48.5707 84.1751 48.888C83.4471 49.2053 82.5044 49.364 81.3471 49.364ZM104.036 49L98.5761 43.064H97.1621V40.6H98.5901L103.868 35.42H108.53L101.698 42.07V41.342L108.782 49H104.036ZM93.8721 49V30.52H97.6661V49H93.8721ZM112.863 49L109.223 35.42H113.157L115.705 46.298H115.985L118.505 35.784H123.377L125.953 46.298H126.205L128.753 35.42H132.673L129.033 49H123.545L121.585 40.586L121.067 38.514H120.843L120.325 40.586L118.365 49H112.863ZM138.528 35.42V42.966C138.528 43.6007 138.616 44.1653 138.794 44.66C138.98 45.1453 139.298 45.5327 139.746 45.822C140.194 46.102 140.805 46.242 141.58 46.242C142.28 46.242 142.877 46.1253 143.372 45.892C143.876 45.6587 144.291 45.3507 144.618 44.968C144.944 44.576 145.182 44.142 145.332 43.666L145.864 45.822H145.206C145.047 46.4753 144.753 47.0727 144.324 47.614C143.904 48.146 143.339 48.5753 142.63 48.902C141.92 49.2193 141.038 49.378 139.984 49.378C138.77 49.378 137.772 49.1587 136.988 48.72C136.213 48.272 135.639 47.6187 135.266 46.76C134.902 45.9013 134.72 44.8513 134.72 43.61V35.42H138.528ZM149.028 35.42V49H145.234L145.374 45.276L145.234 44.912V35.42H149.028Z" fill="white"/>
</svg>
