<svg width="24" height="24" viewBox="0 0 24 24" fill="none" xmlns="http://www.w3.org/2000/svg">
<path fill-rule="evenodd" clip-rule="evenodd" d="M0.70044 2.51937C0.70044 2.01495 0.900822 1.53118 1.2575 1.1745C1.61419 0.817816 2.09795 0.617434 2.60238 0.617434H21.5618C21.8117 0.617026 22.0593 0.665927 22.2904 0.761339C22.5214 0.85675 22.7314 0.996797 22.9083 1.17346C23.0851 1.35013 23.2254 1.55994 23.3211 1.79089C23.4167 2.02184 23.4659 2.26939 23.4658 2.51937V21.4787C23.466 21.7288 23.417 21.9764 23.3215 22.2075C23.226 22.4385 23.0858 22.6485 22.9091 22.8253C22.7323 23.0022 22.5224 23.1424 22.2914 23.2381C22.0604 23.3337 21.8128 23.3829 21.5628 23.3828H2.60238C2.35253 23.3828 2.10512 23.3335 1.8743 23.2379C1.64348 23.1422 1.43376 23.002 1.25714 22.8253C1.08051 22.6486 0.94044 22.4388 0.844919 22.2079C0.749399 21.9771 0.700304 21.7296 0.70044 21.4798V2.51937ZM9.71137 9.29723H12.794V10.8453C13.239 9.95535 14.3772 9.15443 16.0877 9.15443C19.367 9.15443 20.1441 10.927 20.1441 14.1794V20.2039H16.8255V14.9203C16.8255 13.068 16.3806 12.0229 15.2506 12.0229C13.6829 12.0229 13.031 13.1497 13.031 14.9203V20.2039H9.71137V9.29723ZM4.02004 20.0621H7.33963V9.15443H4.02004V20.0611V20.0621ZM7.8146 5.59683C7.82086 5.88106 7.77028 6.16367 7.66584 6.42809C7.5614 6.69251 7.40519 6.9334 7.20639 7.13663C7.00758 7.33986 6.77019 7.50133 6.50814 7.61157C6.24608 7.72181 5.96465 7.77859 5.68035 7.77859C5.39606 7.77859 5.11462 7.72181 4.85257 7.61157C4.59052 7.50133 4.35312 7.33986 4.15432 7.13663C3.95552 6.9334 3.79931 6.69251 3.69487 6.42809C3.59042 6.16367 3.53985 5.88106 3.5461 5.59683C3.55839 5.03893 3.78864 4.50802 4.18755 4.11779C4.58647 3.72757 5.12232 3.50906 5.68035 3.50906C6.23839 3.50906 6.77424 3.72757 7.17315 4.11779C7.57206 4.50802 7.80232 5.03893 7.8146 5.59683Z" fill="#FAFAFA"/>
</svg>
