<svg width="24" height="24" viewBox="0 0 24 24" fill="none" xmlns="http://www.w3.org/2000/svg">
<path d="M11.9183 0.617432C5.53381 0.617432 0.357422 5.79382 0.357422 12.1783C0.357422 17.5956 4.08774 22.1284 9.11672 23.3828C9.06277 23.2267 9.02809 23.0456 9.02809 22.8211V20.8451C8.55891 20.8451 7.77277 20.8451 7.57527 20.8451C6.78431 20.8451 6.08103 20.5051 5.73998 19.8731C5.36136 19.1707 5.29585 18.0965 4.35749 17.4395C4.07907 17.2208 4.29102 16.9713 4.61183 17.005C5.20433 17.1726 5.69566 17.5792 6.1581 18.1823C6.61861 18.7863 6.83537 18.9231 7.6957 18.9231C8.11285 18.9231 8.73714 18.8991 9.32482 18.8066C9.64082 18.004 10.1871 17.2651 10.8547 16.9164C7.00493 16.5204 5.16772 14.6051 5.16772 12.0049C5.16772 10.8854 5.6446 9.80256 6.45483 8.89021C6.18893 7.98461 5.85463 6.13776 6.55695 5.43447C8.28916 5.43447 9.33638 6.5578 9.58783 6.86128C10.451 6.56551 11.399 6.39788 12.3952 6.39788C13.3933 6.39788 14.3451 6.56551 15.2103 6.8632C15.4588 6.56166 16.507 5.43447 18.2431 5.43447C18.9483 6.13872 18.6101 7.99328 18.3414 8.89696C19.1468 9.80738 19.6208 10.8874 19.6208 12.0049C19.6208 14.6032 17.7864 16.5175 13.9424 16.9154C15.0003 17.4674 15.7719 19.0185 15.7719 20.1871V22.8211C15.7719 22.9213 15.7498 22.9935 15.7382 23.0793C20.2431 21.5003 23.4792 17.2227 23.4792 12.1783C23.4792 5.79382 18.3028 0.617432 11.9183 0.617432Z" fill="#FAFAFA"/>
</svg>
