<svg width="27" height="23" viewBox="0 0 27 23" fill="none" xmlns="http://www.w3.org/2000/svg">
<path d="M23.5841 4.00575C24.7179 3.32796 25.5662 2.26071 25.9707 1.00326C24.9054 1.6354 23.7398 2.08068 22.5243 2.31985C21.7045 1.45268 20.6223 0.879209 19.4444 0.687832C18.2666 0.496455 17.0585 0.697799 16.0063 1.26083C14.9542 1.82386 14.1164 2.71731 13.6222 3.80347C13.128 4.88962 13.0047 6.10818 13.2715 7.27131C11.1137 7.16298 9.00275 6.60211 7.07576 5.6251C5.14877 4.6481 3.44877 3.2768 2.08609 1.60021C1.39309 2.79552 1.18104 4.20979 1.49299 5.55578C1.80494 6.90178 2.61751 8.07857 3.76567 8.84717C2.90401 8.81947 2.06146 8.58618 1.30828 8.16674V8.23504C1.30852 9.48836 1.74225 10.703 2.53591 11.673C3.32957 12.643 4.43431 13.3087 5.66278 13.5571C4.86354 13.7745 4.0252 13.8065 3.21171 13.6507C3.55917 14.7286 4.23451 15.6712 5.14348 16.3469C6.05245 17.0225 7.14968 17.3976 8.28205 17.4196C6.35943 18.9286 3.98507 19.7469 1.54099 19.7429C1.10718 19.7429 0.674641 19.7176 0.244629 19.6683C2.72657 21.2631 5.61519 22.1096 8.56535 22.1067C10.5973 22.1207 12.6117 21.7307 14.4917 20.9595C16.3716 20.1883 18.0796 19.0513 19.5164 17.6144C20.9532 16.1775 22.0901 14.4694 22.8611 12.5894C23.6322 10.7094 24.022 8.6949 24.0078 6.66297C24.0078 6.42773 24.0028 6.19375 23.9914 5.96104C25.0544 5.19286 25.9718 4.2412 26.7005 3.15078C25.7102 3.58971 24.6598 3.87789 23.5841 4.00575Z" fill="#FAFAFA"/>
</svg>
