<svg width="72" height="71" viewBox="0 0 72 71" fill="none" xmlns="http://www.w3.org/2000/svg">
<path d="M8.0354 13.0914L10.002 11.048C11.5077 9.49617 13.5051 9.38862 14.9493 10.7714C16.3935 12.1542 16.3474 14.1669 14.8417 15.7187L12.8751 17.7621L8.0354 13.0914ZM14.1964 15.1809C15.3488 13.9825 15.3641 12.5076 14.2733 11.4628C13.1824 10.418 11.7228 10.4795 10.5551 11.6625L9.29526 12.9685L12.9212 16.4869L14.1964 15.1809Z" fill="white"/>
<path d="M14.5039 7.08398L15.2875 6.5155L19.2207 11.9698L18.4371 12.5383L14.5039 7.08398Z" fill="white"/>
<path d="M19.7738 10.541L19.743 9.71129C20.3883 9.8803 21.3102 9.77275 22.0784 9.37328C23.1078 8.83553 23.3383 8.2056 23.0771 7.68322C22.3242 6.22362 19.1899 9.0199 18.0376 6.80746C17.5613 5.88561 17.8686 4.73329 19.4357 3.91899C20.1425 3.55025 20.9568 3.36588 21.6328 3.45806L21.7097 4.28773C21.0183 4.22627 20.3422 4.37991 19.8199 4.65647C18.8058 5.17885 18.5907 5.83951 18.8673 6.3619C19.6201 7.82149 22.7698 5.02521 23.9067 7.22229C24.383 8.12878 24.0604 9.29646 22.4779 10.1108C21.5406 10.5871 20.4805 10.7407 19.7738 10.541Z" fill="white"/>
<path d="M24.3215 5.36319C23.7991 3.44267 24.8746 1.64506 26.8566 1.10731C27.8552 0.830755 28.8232 0.938303 29.5914 1.44532L29.1458 2.19817C28.5005 1.81406 27.8245 1.73724 27.1177 1.92161C25.6581 2.32108 24.8592 3.67313 25.2433 5.102C25.6274 6.53087 27.0102 7.29908 28.4698 6.89961C29.1765 6.69988 29.7297 6.28504 30.083 5.62438L30.8512 6.03921C30.4364 6.86888 29.6682 7.45272 28.6542 7.72928C26.6875 8.28239 24.8438 7.28372 24.3215 5.36319Z" fill="white"/>
<path d="M31.3428 3.53486C31.2968 1.56824 32.7717 0.062552 34.8459 0.0010952C36.8893 -0.0449974 38.4411 1.36851 38.5026 3.35049C38.5487 5.33247 37.0737 6.8228 35.0303 6.88425C32.9407 6.94571 31.3889 5.51684 31.3428 3.53486ZM37.5193 3.38122C37.4885 1.89089 36.3362 0.830763 34.8459 0.861491C33.3402 0.892219 32.2493 2.02917 32.2954 3.50413C32.3262 4.99446 33.4785 6.05459 34.9842 6.02386C36.4745 5.99313 37.5653 4.87154 37.5193 3.38122Z" fill="white"/>
<path d="M46.5535 1.58359L42.2669 7.5449L41.3297 7.34517L39.8394 0.154724L40.8534 0.369824L42.0672 6.26967L45.6009 1.38386L46.5535 1.58359Z" fill="white"/>
<path d="M50.4099 9.69592L50.0718 10.4641L45.6316 8.45142L48.3972 2.32111L52.7145 4.27236L52.3765 5.04057L48.9195 3.47342L48.0745 5.34785L51.1473 6.73063L50.8093 7.46811L47.7365 6.08533L46.8454 8.06731L50.4099 9.69592Z" fill="white"/>
<path d="M54.6965 13.7828L54.7733 11.2631C54.6658 11.1863 54.5429 11.1094 54.42 11.0172L53.0833 10.0186L51.8541 11.6625L51.0859 11.0787L55.1267 5.70123L57.2316 7.26838C58.6298 8.31315 58.937 9.66519 58.0613 10.8329C57.4313 11.6625 56.5556 11.9391 55.603 11.6472L55.5262 14.4127L54.6965 13.7828ZM57.2931 10.2644C57.8769 9.49619 57.6772 8.66652 56.6939 7.92904L55.3879 6.94573L53.5749 9.37327L54.8809 10.3566C55.8796 11.0941 56.7246 11.0326 57.2931 10.2644Z" fill="white"/>
<path d="M69.5383 23.9692L70.2451 26.7194C70.7828 28.809 69.8303 30.5758 67.8944 31.0675C65.9585 31.5592 64.2684 30.4837 63.7307 28.3941L63.0239 25.6439L69.5383 23.9692ZM64.5296 28.1329C64.9445 29.7462 66.189 30.5144 67.6486 30.1456C69.1082 29.7769 69.8303 28.4863 69.4154 26.8731L68.9699 25.1216L64.0841 26.3814L64.5296 28.1329Z" fill="white"/>
<path d="M71.2591 32.6346L71.3359 33.5872L64.6371 34.0789L64.5603 33.1263L71.2591 32.6346Z" fill="white"/>
<path d="M65.5437 35.308L66.2658 35.7228C65.7741 36.1837 65.39 37.0134 65.3286 37.8738C65.2517 39.0261 65.6666 39.5639 66.2504 39.61C67.8944 39.7329 67.1415 35.5845 69.6305 35.7689C70.6599 35.8457 71.4896 36.7061 71.3667 38.473C71.3052 39.2566 71.044 40.0555 70.6138 40.5933L69.8764 40.2245C70.2912 39.6714 70.5063 39.0108 70.5524 38.4269C70.6292 37.29 70.1836 36.7676 69.5998 36.7215C67.9558 36.5986 68.6933 40.7469 66.235 40.5625C65.2056 40.4857 64.3913 39.61 64.5143 37.8277C64.5911 36.7829 65.0059 35.7996 65.5437 35.308Z" fill="white"/>
<path d="M67.5872 41.8839C69.4923 42.437 70.4603 44.2961 69.8918 46.2627C69.5999 47.2613 69.0007 48.0296 68.171 48.429L67.7715 47.6608C68.4476 47.3228 68.8624 46.7697 69.0621 46.0629C69.4923 44.6033 68.7549 43.2206 67.326 42.8057C65.8971 42.3909 64.5297 43.1591 64.0995 44.6187C63.8998 45.3255 63.9612 46.0168 64.3453 46.6621L63.5925 47.0923C63.1008 46.3088 63.0087 45.3408 63.3006 44.3422C63.869 42.3755 65.682 41.3308 67.5872 41.8839Z" fill="white"/>
<path d="M65.4975 48.8131C67.2029 49.7964 67.7099 51.8552 66.6805 53.6375C65.6511 55.4043 63.6384 55.9882 61.9176 54.9895C60.2122 53.9908 59.7052 51.9474 60.7346 50.1805C61.7486 48.4136 63.7921 47.8298 65.4975 48.8131ZM62.3939 54.1752C63.6845 54.9281 65.1902 54.5132 65.9277 53.2226C66.6805 51.9167 66.2964 50.411 65.0058 49.6581C63.7152 48.9053 62.2096 49.3201 61.4567 50.6261C60.7192 51.9167 61.1033 53.4224 62.3939 54.1752Z" fill="white"/>
<path d="M59.183 62.8253L56.356 56.0497L57.0166 55.3583L63.9305 57.8626L63.2084 58.6155L57.539 56.5567L59.859 62.1339L59.183 62.8253Z" fill="white"/>
<path d="M50.2717 61.8573L49.7954 61.1659L53.8208 58.4157L57.6004 63.9776L53.6825 66.6509L53.2063 65.9595L56.3406 63.8239L55.1729 62.1185L52.392 64.0236L51.931 63.3476L54.712 61.4425L53.4828 59.6448L50.2717 61.8573Z" fill="white"/>
<path d="M44.5409 63.3784L46.6458 64.7612C46.7687 64.6997 46.8916 64.6383 47.0299 64.5922L48.5817 63.9776L47.8289 62.0724L48.72 61.7191L51.1936 67.9723L48.7507 68.9402C47.1221 69.5855 45.8162 69.1553 45.2784 67.8033C44.8943 66.8353 45.1248 65.9442 45.8776 65.2836L43.5576 63.7779L44.5409 63.3784ZM46.1849 67.4499C46.5383 68.341 47.3372 68.6176 48.4895 68.1567L50.0106 67.5574L48.889 64.7458L47.3679 65.345C46.2156 65.7906 45.8315 66.5434 46.1849 67.4499Z" fill="white"/>
<path d="M28.1013 70.7071L25.3972 69.8774C23.3384 69.2475 22.3243 67.5113 22.9082 65.6062C23.492 63.701 25.305 62.8252 27.3638 63.4552L30.0679 64.2848L28.1013 70.7071ZM27.1794 64.2541C25.5969 63.7625 24.2756 64.4231 23.83 65.8673C23.3845 67.3116 24.1066 68.6022 25.7045 69.0785L27.4406 69.6162L28.9156 64.7919L27.1794 64.2541Z" fill="white"/>
<path d="M19.8045 67.6496L18.9441 67.2041L22.0323 61.2274L22.8927 61.673L19.8045 67.6496Z" fill="white"/>
<path d="M20.5113 61.3811L19.7892 61.7805C19.6509 61.1199 19.1439 60.3516 18.4371 59.86C17.4999 59.184 16.8239 59.2608 16.4859 59.7371C15.5333 61.0738 19.4358 62.6102 17.9762 64.6383C17.377 65.4833 16.1939 65.7291 14.7651 64.6997C14.1198 64.2388 13.582 63.5935 13.3516 62.9482L14.0583 62.5026C14.3195 63.1479 14.7497 63.6703 15.2414 64.0237C16.1632 64.6843 16.8546 64.5922 17.1926 64.1159C18.1452 62.7792 14.2427 61.2428 15.6869 59.2301C16.2861 58.4004 17.4692 58.1546 18.9134 59.1993C19.7584 59.7985 20.373 60.6589 20.5113 61.3811Z" fill="white"/>
<path d="M13.8432 59.6756C12.3682 61.0123 10.2787 60.8587 8.89593 59.353C8.20454 58.5848 7.85117 57.6783 7.95872 56.7564L8.81911 56.8179C8.75765 57.5707 9.00349 58.2007 9.49514 58.7538C10.5092 59.8754 12.0763 59.9676 13.1825 58.9689C14.2888 57.9702 14.3349 56.4031 13.3208 55.2815C12.8292 54.7284 12.1992 54.4364 11.4464 54.4211L11.4771 53.5453C12.399 53.53 13.2747 53.9601 13.9815 54.7284C15.3796 56.234 15.3182 58.3389 13.8432 59.6756Z" fill="white"/>
<path d="M9.03427 54.252C7.29812 55.1893 5.28541 54.5593 4.3021 52.7464C3.33415 50.9487 3.88726 48.9207 5.62342 47.9681C7.35957 47.0309 9.37228 47.6608 10.3402 49.4584C11.3389 51.2868 10.7704 53.3148 9.03427 54.252ZM6.08434 48.8131C4.77839 49.5199 4.34819 51.0256 5.05494 52.3315C5.77706 53.6528 7.26739 54.1138 8.57334 53.407C9.8793 52.7003 10.3095 51.1946 9.58738 49.8732C8.88063 48.5673 7.3903 48.1064 6.08434 48.8131Z" fill="white"/>
<path d="M0.384033 41.5612L7.63593 42.6982L7.88176 43.62L2.13555 48.1985L1.87436 47.1999L6.59117 43.451L0.629861 42.4984L0.384033 41.5612Z" fill="white"/>
<path d="M5.86912 34.463L6.69879 34.4169L6.92925 39.2873L0.2151 39.5946L0 34.8471L0.829668 34.801L0.998673 38.5806L3.05748 38.4884L2.90383 35.1236L3.71814 35.0929L3.87178 38.4577L6.03813 38.3501L5.86912 34.463Z" fill="white"/>
<path d="M7.5745 28.7782L5.28524 29.8537C5.26987 29.992 5.25451 30.1303 5.23914 30.2685L4.96259 31.9125L6.9753 32.2659L6.80629 33.2185L0.184326 32.0661L0.629887 29.485C0.921806 27.7642 1.98194 26.873 3.41081 27.1189C4.44021 27.3032 5.0855 27.9485 5.25451 28.9319L7.74351 27.7488L7.5745 28.7782ZM3.25716 28.0561C2.30458 27.8871 1.65929 28.4402 1.44419 29.6386L1.16763 31.2518L4.14829 31.7742L4.42484 30.161C4.63994 28.9472 4.19438 28.2251 3.25716 28.0561Z" fill="white"/>
<path d="M36 26V45" stroke="#0A0A0A" stroke-width="2" stroke-linecap="round" stroke-linejoin="round"/>
<path d="M43 38L36 45L29 38" stroke="#0A0A0A" stroke-width="2" stroke-linecap="round" stroke-linejoin="round"/>
</svg>
