<svg width="24" height="24" viewBox="0 0 24 24" fill="none" xmlns="http://www.w3.org/2000/svg">
<path fill-rule="evenodd" clip-rule="evenodd" d="M7.15572 0.685728C8.36953 0.629849 8.75654 0.617432 11.8485 0.617432C14.9404 0.617432 15.3274 0.630884 16.5402 0.685728C17.753 0.740571 18.5808 0.934077 19.3052 1.2145C20.0637 1.50114 20.7518 1.9492 21.3209 2.52868C21.9004 3.09678 22.3474 3.78388 22.633 4.54341C22.9145 5.26777 23.107 6.0956 23.1628 7.3063C23.2187 8.52217 23.2311 8.90918 23.2311 12.0001C23.2311 15.092 23.2177 15.479 23.1628 16.6929C23.108 17.9036 22.9145 18.7314 22.633 19.4557C22.3474 20.2154 21.8997 20.9036 21.3209 21.4725C20.7518 22.052 20.0637 22.499 19.3052 22.7846C18.5808 23.0661 17.753 23.2586 16.5423 23.3145C15.3274 23.3703 14.9404 23.3828 11.8485 23.3828C8.75654 23.3828 8.36953 23.3693 7.15572 23.3145C5.94502 23.2596 5.11719 23.0661 4.39284 22.7846C3.63322 22.499 2.94498 22.0512 2.37604 21.4725C1.79695 20.9041 1.34882 20.2162 1.06289 19.4568C0.782465 18.7324 0.589995 17.9046 0.534116 16.6939C0.478238 15.478 0.46582 15.091 0.46582 12.0001C0.46582 8.90815 0.479273 8.52114 0.534116 7.30837C0.58896 6.0956 0.782465 5.26777 1.06289 4.54341C1.34924 3.78397 1.79771 3.09607 2.37707 2.52765C2.94521 1.94869 3.63276 1.50056 4.3918 1.2145C5.11615 0.934077 5.94398 0.741606 7.15469 0.685728H7.15572ZM16.4481 2.73461C15.2478 2.67976 14.8877 2.66838 11.8485 2.66838C8.80931 2.66838 8.4492 2.67976 7.24885 2.73461C6.13852 2.78531 5.53628 2.97054 5.13478 3.12679C4.60393 3.33375 4.22417 3.57899 3.82577 3.97739C3.44812 4.34479 3.15749 4.79206 2.97518 5.28639C2.81893 5.68789 2.6337 6.29014 2.583 7.40046C2.52815 8.60082 2.51677 8.96092 2.51677 12.0001C2.51677 15.0393 2.52815 15.3994 2.583 16.5997C2.6337 17.71 2.81893 18.3123 2.97518 18.7138C3.1573 19.2074 3.44808 19.6554 3.82577 20.0228C4.19312 20.4005 4.64119 20.6913 5.13478 20.8734C5.53628 21.0296 6.13852 21.2149 7.24885 21.2656C8.4492 21.3204 8.80828 21.3318 11.8485 21.3318C14.8887 21.3318 15.2478 21.3204 16.4481 21.2656C17.5584 21.2149 18.1607 21.0296 18.5622 20.8734C19.093 20.6664 19.4728 20.4212 19.8712 20.0228C20.2489 19.6554 20.5397 19.2074 20.7218 18.7138C20.878 18.3123 21.0633 17.71 21.114 16.5997C21.1688 15.3994 21.1802 15.0393 21.1802 12.0001C21.1802 8.96092 21.1688 8.60082 21.114 7.40046C21.0633 6.29014 20.878 5.68789 20.7218 5.28639C20.5148 4.75555 20.2696 4.37578 19.8712 3.97739C19.5038 3.59976 19.0565 3.30913 18.5622 3.12679C18.1607 2.97054 17.5584 2.78531 16.4481 2.73461ZM10.3946 15.5091C11.2066 15.847 12.1107 15.8927 12.9525 15.6381C13.7944 15.3836 14.5217 14.8446 15.0104 14.1134C15.499 13.3821 15.7186 12.5039 15.6317 11.6287C15.5448 10.7535 15.1567 9.93566 14.5338 9.31482C14.1366 8.91795 13.6565 8.61407 13.1278 8.42505C12.5992 8.23603 12.0352 8.16658 11.4765 8.22169C10.9178 8.27679 10.3782 8.45509 9.89667 8.74375C9.41513 9.03241 9.00359 9.42424 8.69166 9.89104C8.37973 10.3578 8.17518 10.888 8.09274 11.4433C8.01029 11.9987 8.052 12.5654 8.21487 13.1027C8.37773 13.64 8.65769 14.1345 9.03461 14.5506C9.41152 14.9667 9.87599 15.294 10.3946 15.5091ZM7.7114 7.86301C8.25469 7.31972 8.89967 6.88876 9.60951 6.59474C10.3194 6.30071 11.0802 6.14938 11.8485 6.14938C12.6168 6.14938 13.3776 6.30071 14.0875 6.59474C14.7973 6.88876 15.4423 7.31972 15.9856 7.86301C16.5288 8.4063 16.9598 9.05128 17.2538 9.76112C17.5479 10.471 17.6992 11.2318 17.6992 12.0001C17.6992 12.7684 17.5479 13.5292 17.2538 14.2391C16.9598 14.9489 16.5288 15.5939 15.9856 16.1372C14.8883 17.2344 13.4002 17.8508 11.8485 17.8508C10.2968 17.8508 8.80862 17.2344 7.7114 16.1372C6.61418 15.04 5.99777 13.5518 5.99777 12.0001C5.99777 10.4484 6.61418 8.96023 7.7114 7.86301ZM18.9968 7.0207C19.1314 6.89369 19.2392 6.74097 19.3138 6.57157C19.3883 6.40217 19.4281 6.21953 19.4308 6.03447C19.4335 5.84941 19.399 5.66569 19.3295 5.49419C19.2599 5.32268 19.1566 5.16688 19.0257 5.03601C18.8949 4.90514 18.7391 4.80186 18.5676 4.73228C18.396 4.6627 18.2123 4.62824 18.0273 4.63094C17.8422 4.63364 17.6596 4.67344 17.4902 4.74799C17.3208 4.82254 17.168 4.93032 17.041 5.06495C16.7941 5.32678 16.6588 5.67456 16.6641 6.03447C16.6693 6.39438 16.8146 6.73807 17.0691 6.99259C17.3237 7.24711 17.6674 7.39242 18.0273 7.39767C18.3872 7.40291 18.735 7.26769 18.9968 7.0207Z" fill="#FAFAFA"/>
</svg>
