<svg width="24" height="24" viewBox="0 0 24 24" fill="none" xmlns="http://www.w3.org/2000/svg">
<path d="M21.9798 0.617432H1.74399C1.40856 0.617432 1.08687 0.750681 0.849682 0.987865C0.612497 1.22505 0.479248 1.54674 0.479248 1.88217V22.118C0.479248 22.4534 0.612497 22.7751 0.849682 23.0123C1.08687 23.2495 1.40856 23.3828 1.74399 23.3828H12.6397V14.5802H9.68276V11.1337H12.6397V8.60426C12.6397 5.66374 14.4357 4.06132 17.0663 4.06132C17.9504 4.05879 18.8357 4.10432 19.7159 4.19665V7.25732H17.901C16.4744 7.25732 16.1962 7.93775 16.1962 8.9331V11.1274H19.6072L19.1645 14.5738H16.1949V23.3828H21.9798C22.3153 23.3828 22.637 23.2495 22.8741 23.0123C23.1113 22.7751 23.2446 22.4534 23.2446 22.118V1.88217C23.2446 1.54674 23.1113 1.22505 22.8741 0.987865C22.637 0.750681 22.3153 0.617432 21.9798 0.617432Z" fill="#FAFAFA"/>
</svg>
